# xmcd
#
# Track frame offsets:
#	150
#	19554
#	36752
#	57193
#	75751
#	95449
#	115120
#	141182
#	159427
#	177197
#	197702
#	217087
#	240100
#
# Disc length: 3494 seconds
#
# Revision: 1
# Processed by: cddbd v1.5.2PL0 Copyright (c) Steve Scherf et al.
# Submitted via: audiograbber 1.83.01
#
DISCID=990da40d
DTITLE=Mary Chapin Carpenter - The Calling
DYEAR=2007
DGENRE=Country
TTITLE0=The Calling
TTITLE1=We're All Right
TTITLE2=Twilight
TTITLE3=It Must Have Happened
TTITLE4=On and on It Goes
TTITLE5=Your Life Story
TTITLE6=Houston
TTITLE7=Leaving Song
TTITLE8=On with the Song
TTITLE9=Closer and Closer Apart
TTITLE10=Here I Am
TTITLE11=Why Shouldn't We
TTITLE12=Bright Morning Star
EXTD=
EXTT0=
EXTT1=
EXTT2=
EXTT3=
EXTT4=
EXTT5=
EXTT6=
EXTT7=
EXTT8=
EXTT9=
EXTT10=
EXTT11=
EXTT12=
PLAYORDER=
